<?xml version="1.0" encoding="utf-8"?>
<!-- Generator: Adobe Illustrator 16.0.3, SVG Export Plug-In . SVG Version: 6.00 Build 0)  -->
<!DOCTYPE svg PUBLIC "-//W3C//DTD SVG 1.1//EN" "http://www.w3.org/Graphics/SVG/1.1/DTD/svg11.dtd">
<svg version="1.1" id="Layer_1" xmlns="http://www.w3.org/2000/svg" xmlns:xlink="http://www.w3.org/1999/xlink" x="0px" y="0px"
	 width="729px" height="200px" viewBox="0 0 729 200" enable-background="new 0 0 729 200" xml:space="preserve">
<g>
	<rect x="1.572" y="83.242" fill="none" width="537.741" height="80.047"/>
	<g enable-background="new    ">
		<path fill="#EC3139" d="M67.757,106.428c0,6.324-3.025,12.374-8.433,16.682c-5.316,4.309-12.741,6.508-21.357,6.6H25.227v30.34
			c0,1.008-0.733,1.833-1.741,1.833H12.761c-1.008,0-1.833-0.825-1.833-1.833v-44.73h14.116L10.928,92.312v-7.333
			c0-1.009,0.825-1.833,1.833-1.833h25.023c8.708,0,16.132,2.291,21.54,6.6C64.732,93.962,67.757,100.012,67.757,106.428z
			 M41.634,115.136c7.791-1.009,11.824-4.858,11.824-8.708c0-4.491-5.408-8.982-15.674-8.982H30.91L41.634,115.136z"/>
	</g>
	<g enable-background="new    ">
		<path fill="#EC3139" d="M101.942,97.354v50.138h12.007c1.283,0,2.292,0.825,2.292,1.833v10.725c0,1.008-1.008,1.833-2.292,1.833
			H75.086c-1.008,0-1.833-0.825-1.833-1.833v-10.725c0-1.008,0.825-1.833,1.833-1.833h12.465V97.354H75.086
			c-1.008,0-1.833-0.733-1.833-1.741V84.888c0-1.008,0.825-1.833,1.833-1.833h38.863c1.283,0,2.292,0.825,2.292,1.833v10.725
			c0,1.008-1.008,1.741-2.292,1.741H101.942z"/>
		<path fill="#EC3139" d="M170.224,95.612c0,1.191-0.275,2.291-0.825,3.391l-25.94,48.58h24.565c1.191,0,2.2,0.733,2.2,1.741v10.725
			c0,1.008-1.008,1.833-2.2,1.833h-38.955c-1.008,0-1.833-0.825-1.833-1.833V149.6c0-1.283,0.275-2.476,0.825-3.667L154,97.445
			h-24.931c-1.008,0-1.833-0.825-1.833-1.833V84.888c0-1.008,0.825-1.833,1.833-1.833h38.955c1.191,0,2.2,0.825,2.2,1.833V95.612z"
			/>
		<path fill="#EC3139" d="M224.208,95.612c0,1.191-0.275,2.291-0.825,3.391l-25.94,48.58h24.565c1.191,0,2.2,0.733,2.2,1.741v10.725
			c0,1.008-1.008,1.833-2.2,1.833h-38.956c-1.008,0-1.833-0.825-1.833-1.833V149.6c0-1.283,0.275-2.476,0.825-3.667l25.939-48.487
			h-24.932c-1.008,0-1.833-0.825-1.833-1.833V84.888c0-1.008,0.825-1.833,1.833-1.833h38.956c1.191,0,2.2,0.825,2.2,1.833V95.612z"
			/>
	</g>
	<g enable-background="new    ">
		<path fill="#EC3139" d="M263.892,97.354v50.138h12.007c1.283,0,2.292,0.825,2.292,1.833v10.725c0,1.008-1.008,1.833-2.292,1.833
			h-38.863c-1.008,0-1.833-0.825-1.833-1.833v-10.725c0-1.008,0.825-1.833,1.833-1.833h12.465V97.354h-12.465
			c-1.008,0-1.833-0.733-1.833-1.741V84.888c0-1.008,0.825-1.833,1.833-1.833h38.863c1.283,0,2.292,0.825,2.292,1.833v10.725
			c0,1.008-1.008,1.741-2.292,1.741H263.892z"/>
	</g>
	<g enable-background="new    ">
		<path fill="#EC3139" d="M291.203,147.949c-14.115-16.59-12.099-41.613,4.583-55.729c14.024-11.916,34.098-12.282,48.488-2.017
			l0.275,0.184l0.183,0.183c0.733,0.825,0.642,2.017-0.092,2.658l-8.616,7.241c-0.55,0.458-1.283,0.55-2.017,0.184
			c-8.891-5.225-20.624-4.491-28.964,2.566c-10.541,8.982-11.824,24.84-2.841,35.472c8.341,9.808,22.731,11.642,33.181,4.583
			c0,0,0.092,0,0.092-0.091c0.733-0.459,1.833-0.275,2.383,0.458l6.875,8.157c0.733,0.733,0.642,1.925-0.092,2.566
			c-0.091,0-0.091,0-0.091,0.092h-0.092v0.092c-2.2,1.559-4.491,2.842-6.875,3.941C321.909,165.456,302.844,161.698,291.203,147.949
			z"/>
	</g>
	<g enable-background="new    ">
		<path fill="#EC3139" d="M404.951,142.175c0,1.009-0.826,1.741-1.834,1.741h-2.475l3.85,15.308l0.092,0.458v0.184
			c0,1.1-0.733,1.925-1.742,1.925h-11.09c-0.734,0-1.375-0.55-1.65-1.283l-0.092-0.275l-4.033-16.315h-15.674l-4.033,16.407
			c0,0-0.091,0.092-0.091,0.184c-0.184,0.733-0.917,1.283-1.65,1.283h-11.091c-0.917,0-1.742-0.825-1.742-1.925v-0.366
			c0.092,0,0.092-0.092,0.092-0.184l18.606-74.336l0.092-0.55c0.275-0.642,0.917-1.101,1.65-1.101h12.008
			c0.732,0,1.374,0.459,1.648,1.101l0.092,0.458l11.184,44.821h6.049c1.008,0,1.834,0.733,1.834,1.742V142.175z M382.402,129.709
			l-4.217-16.957l-4.308,16.957H382.402z"/>
	</g>
	<g enable-background="new    ">
		<path fill="#EC3139" d="M460.035,95.612c0,1.008-1.008,1.833-2.199,1.833h-17.508v62.236c0,1.191-0.824,2.2-1.741,2.2h-10.815
			c-0.917,0-1.742-1.009-1.742-2.2V97.445h-17.873c-1.008,0-1.834-0.825-1.834-1.833V84.888c0-1.008,0.826-1.741,1.834-1.741h49.68
			c1.191,0,2.199,0.733,2.199,1.741V95.612z"/>
	</g>
	<g enable-background="new    ">
		<path fill="#EC3139" d="M496.695,161.974c-21.723,0-39.414-17.69-39.414-39.414c0-21.723,17.691-39.413,39.414-39.413
			c21.724,0,39.414,17.69,39.414,39.413C536.109,144.283,518.419,161.974,496.695,161.974z M496.695,97.445
			c-13.84,0-25.115,11.273-25.115,25.114s11.275,25.023,25.115,25.023c13.841,0,25.023-11.183,25.023-25.023
			S510.536,97.445,496.695,97.445z"/>
	</g>
	<g>
		<circle fill="#EC3139" cx="579.15" cy="133.703" r="29.583"/>
		<path fill="#EC3139" d="M585.918,107.32c0,2.416-3.03,4.375-6.767,4.375l0,0c-3.738,0-6.765-1.959-6.765-4.375V35.697
			c0-2.415,3.025-4.374,6.765-4.374l0,0c3.735,0,6.767,1.958,6.767,4.374V107.32z"/>
	</g>
	<rect x="611.215" y="83.241" fill="none" width="109.724" height="80.048"/>
	<g enable-background="new    ">
		<path fill="#EC3139" d="M654.4,137.316c0,3.758-0.734,7.24-2.201,10.357c-1.466,3.208-3.758,6.049-6.69,8.341
			c-4.491,3.574-10.266,5.591-16.499,5.866c-0.824-0.092-1.467-0.825-1.467-1.741v-10.725c0-0.825,0.643-1.649,1.467-1.833
			l0.367-0.092c3.574-0.367,10.725-2.2,10.725-10.174V97.444h-10.725c-1.008,0-1.834-0.733-1.834-1.742V84.979
			c0-1.009,0.826-1.833,1.834-1.833h22.822c0.918,0,1.834,0.55,2.109,1.283v0.092c0.092,0.091,0.092,0.183,0.092,0.366V137.316z"/>
		<path fill="#EC3139" d="M717.275,138.782c0,0.642-0.092,6.142-3.574,11.732c-3.208,5.316-9.808,11.55-23.281,11.55
			c-10.633,0-18.974-4.492-23.465-12.466c-2.108-3.85-2.934-7.608-3.209-9.991c0-0.184-0.092-0.366-0.092-0.55
			c0-0.917,0.734-1.741,1.65-1.833h11.274c0.733,0.092,1.283,0.55,1.466,1.283v0.092c0,0.091,0.092,0.183,0.092,0.274
			c0.184,1.1,0.643,2.658,1.559,4.033c1.925,3.208,5.5,4.858,10.725,4.858c5.591,0,9.166-1.559,11.09-4.675
			c1.283-2.108,1.467-4.4,1.467-4.4c0-2.566-0.641-5.591-5.408-7.516c-3.482-1.467-7.148-1.559-7.148-1.559
			c-0.643,0-6.508-0.091-12.558-2.475c-9.258-3.758-14.299-11.091-14.299-20.715c0-0.917,0.183-9.441,6.874-16.132
			c4.767-4.858,11.549-7.333,19.982-7.333c5.408,0,13.199,1.191,19.156,7.241c5.775,5.866,7.241,13.29,7.607,16.957v0.184
			c0,1.1-0.732,1.925-1.74,1.925h-11.092c-0.732-0.092-1.375-0.733-1.559-1.467v-0.275c-0.274-1.283-0.732-3.116-1.649-4.949
			c-1.283-2.292-3.758-5.316-10.724-5.316c-4.492,0-7.791,1.008-9.899,3.116c-2.476,2.475-2.658,6.05-2.658,6.05
			c0,2.566,0.642,5.499,5.407,7.425c3.484,1.374,7.15,1.466,7.15,1.466c0.641,0,6.508,0.092,12.557,2.566
			C712.234,121.733,717.275,129.158,717.275,138.782z"/>
	</g>
</g>
</svg>
