<?xml version="1.0" encoding="utf-8"?>
<!-- Generator: Adobe Illustrator 16.0.3, SVG Export Plug-In . SVG Version: 6.00 Build 0)  -->
<!DOCTYPE svg PUBLIC "-//W3C//DTD SVG 1.1//EN" "http://www.w3.org/Graphics/SVG/1.1/DTD/svg11.dtd">
<svg version="1.1" id="Layer_1" xmlns="http://www.w3.org/2000/svg" xmlns:xlink="http://www.w3.org/1999/xlink" x="0px" y="0px"
	 width="700px" height="400px" viewBox="0 0 700 400" enable-background="new 0 0 700 400" xml:space="preserve">
<g>
	<rect y="225.738" fill="none" width="700" height="94.262"/>
	<path fill="#EC3139" d="M75.917,250.028c0,6.623-3.168,12.959-8.832,17.471c-5.567,4.512-13.343,6.815-22.366,6.911H31.376v31.773
		c0,1.057-0.768,1.92-1.824,1.92H18.321c-1.056,0-1.919-0.863-1.919-1.92v-46.845h14.783l-14.783-24.094v-7.68
		c0-1.056,0.864-1.92,1.919-1.92h26.207c9.119,0,16.895,2.4,22.558,6.912C72.75,236.973,75.917,243.309,75.917,250.028z
		 M48.559,259.147c8.16-1.056,12.383-5.088,12.383-9.119c0-4.704-5.664-9.407-16.415-9.407h-7.2L48.559,259.147z"/>
	<path fill="#EC3139" d="M111.726,240.524v52.509h12.575c1.344,0,2.4,0.863,2.4,1.92v11.23c0,1.057-1.056,1.92-2.4,1.92H83.601
		c-1.056,0-1.92-0.863-1.92-1.92v-11.23c0-1.057,0.864-1.92,1.92-1.92h13.055v-52.509H83.601c-1.056,0-1.92-0.768-1.92-1.823V227.47
		c0-1.056,0.864-1.92,1.92-1.92h40.701c1.344,0,2.4,0.864,2.4,1.92v11.231c0,1.056-1.056,1.823-2.4,1.823H111.726z"/>
	<path fill="#EC3139" d="M183.244,238.701c0,1.248-0.288,2.399-0.864,3.552l-27.166,50.876h25.726c1.248,0,2.304,0.768,2.304,1.824
		v11.23c0,1.057-1.056,1.92-2.304,1.92h-40.797c-1.056,0-1.92-0.863-1.92-1.92v-10.942c0-1.345,0.288-2.593,0.864-3.84l27.166-50.78
		h-26.11c-1.056,0-1.92-0.864-1.92-1.92V227.47c0-1.056,0.864-1.92,1.92-1.92h40.797c1.248,0,2.304,0.864,2.304,1.92V238.701z"/>
	<path fill="#EC3139" d="M239.787,238.701c0,1.248-0.288,2.399-0.864,3.552l-27.166,50.876h25.726c1.248,0,2.304,0.768,2.304,1.824
		v11.23c0,1.057-1.056,1.92-2.304,1.92h-40.797c-1.056,0-1.92-0.863-1.92-1.92v-10.942c0-1.345,0.288-2.593,0.864-3.84l27.166-50.78
		h-26.11c-1.056,0-1.92-0.864-1.92-1.92V227.47c0-1.056,0.864-1.92,1.92-1.92h40.797c1.248,0,2.304,0.864,2.304,1.92V238.701z"/>
	<path fill="#EC3139" d="M281.355,240.524v52.509h12.575c1.344,0,2.4,0.863,2.4,1.92v11.23c0,1.057-1.056,1.92-2.4,1.92h-40.701
		c-1.056,0-1.92-0.863-1.92-1.92v-11.23c0-1.057,0.864-1.92,1.92-1.92h13.055v-52.509h-13.055c-1.056,0-1.92-0.768-1.92-1.823
		V227.47c0-1.056,0.864-1.92,1.92-1.92h40.701c1.344,0,2.4,0.864,2.4,1.92v11.231c0,1.056-1.056,1.823-2.4,1.823H281.355z"/>
	<path fill="#EC3139" d="M309.965,293.513c-14.783-17.375-12.671-43.581,4.8-58.363c14.687-12.479,35.709-12.863,50.78-2.112
		l0.288,0.192l0.191,0.191c0.769,0.864,0.673,2.112-0.096,2.784l-9.023,7.583c-0.576,0.48-1.344,0.576-2.111,0.192
		c-9.312-5.472-21.599-4.704-30.334,2.688c-11.039,9.407-12.383,26.015-2.976,37.149c8.735,10.271,23.807,12.191,34.75,4.8
		c0,0,0.096,0,0.096-0.096c0.769-0.48,1.92-0.288,2.496,0.479l7.199,8.544c0.769,0.768,0.673,2.016-0.096,2.688
		c-0.096,0-0.096,0-0.096,0.096h-0.096v0.097c-2.305,1.632-4.704,2.976-7.2,4.127C342.123,311.848,322.156,307.912,309.965,293.513z
		"/>
	<path fill="#EC3139" d="M429.098,287.465c0,1.057-0.863,1.824-1.92,1.824h-2.592l4.032,16.031l0.096,0.479v0.192
		c0,1.151-0.768,2.016-1.824,2.016h-11.614c-0.769,0-1.44-0.576-1.729-1.344l-0.096-0.288l-4.224-17.087h-16.415l-4.224,17.183
		c0,0-0.096,0.097-0.096,0.192c-0.192,0.768-0.96,1.344-1.729,1.344h-11.615c-0.96,0-1.823-0.864-1.823-2.016v-0.384
		c0.096,0,0.096-0.097,0.096-0.192l19.486-77.851l0.097-0.576c0.288-0.672,0.96-1.151,1.728-1.151h12.575
		c0.768,0,1.439,0.479,1.728,1.151l0.097,0.48l11.711,46.94h6.335c1.057,0,1.92,0.768,1.92,1.824V287.465z M405.483,274.41
		l-4.415-17.759l-4.512,17.759H405.483z"/>
	<path fill="#EC3139" d="M486.794,238.701c0,1.056-1.056,1.92-2.304,1.92h-18.334V305.8c0,1.248-0.864,2.304-1.824,2.304h-11.327
		c-0.96,0-1.824-1.056-1.824-2.304v-65.179h-18.719c-1.056,0-1.92-0.864-1.92-1.92V227.47c0-1.056,0.864-1.824,1.92-1.824h52.028
		c1.248,0,2.304,0.769,2.304,1.824V238.701z"/>
	<path fill="#EC3139" d="M525.195,308.2c-22.75,0-41.277-18.527-41.277-41.277s18.527-41.277,41.277-41.277
		s41.277,18.527,41.277,41.277S547.945,308.2,525.195,308.2z M525.195,240.621c-14.495,0-26.302,11.807-26.302,26.302
		s11.807,26.206,26.302,26.206s26.206-11.711,26.206-26.206S539.69,240.621,525.195,240.621z"/>
	<path fill="#EC3139" d="M584.812,301c0,4.032-3.359,7.392-7.583,7.392c-4.032,0-7.392-3.359-7.392-7.392
		c0-4.224,3.359-7.679,7.392-7.679C581.453,293.321,584.812,296.776,584.812,301z"/>
	<path fill="#EC3139" d="M620.62,282.378c0,3.936-0.769,7.583-2.304,10.847c-1.536,3.36-3.936,6.336-7.008,8.735
		c-4.704,3.744-10.751,5.855-17.278,6.144c-0.864-0.096-1.536-0.863-1.536-1.823v-11.231c0-0.864,0.672-1.728,1.536-1.92
		l0.384-0.096c3.743-0.385,11.23-2.304,11.23-10.655v-41.757h-11.23c-1.057,0-1.92-0.769-1.92-1.824v-11.231
		c0-1.056,0.863-1.92,1.92-1.92h23.902c0.96,0,1.92,0.576,2.207,1.344v0.097c0.097,0.096,0.097,0.191,0.097,0.384V282.378z"/>
	<path fill="#EC3139" d="M686.475,283.913c0,0.673-0.096,6.432-3.744,12.287c-3.359,5.568-10.271,12.096-24.382,12.096
		c-11.136,0-19.871-4.704-24.574-13.055c-2.208-4.032-3.072-7.968-3.36-10.464c0-0.191-0.096-0.384-0.096-0.576
		c0-0.96,0.769-1.823,1.729-1.92h11.807c0.768,0.097,1.344,0.576,1.536,1.345v0.096c0,0.096,0.096,0.191,0.096,0.288
		c0.192,1.151,0.672,2.783,1.632,4.224c2.016,3.359,5.76,5.088,11.231,5.088c5.855,0,9.6-1.632,11.615-4.896
		c1.344-2.207,1.536-4.607,1.536-4.607c0-2.688-0.673-5.855-5.664-7.871c-3.647-1.536-7.487-1.632-7.487-1.632
		c-0.672,0-6.815-0.096-13.151-2.592c-9.695-3.936-14.975-11.615-14.975-21.694c0-0.96,0.191-9.888,7.199-16.896
		c4.992-5.087,12.096-7.679,20.927-7.679c5.663,0,13.823,1.248,20.062,7.583c6.048,6.144,7.583,13.919,7.968,17.759v0.192
		c0,1.151-0.769,2.016-1.824,2.016h-11.615c-0.768-0.096-1.439-0.768-1.632-1.536v-0.288c-0.288-1.344-0.768-3.264-1.728-5.184
		c-1.345-2.399-3.937-5.567-11.231-5.567c-4.704,0-8.159,1.056-10.367,3.264c-2.592,2.592-2.784,6.336-2.784,6.336
		c0,2.688,0.672,5.759,5.664,7.775c3.647,1.439,7.487,1.535,7.487,1.535c0.672,0,6.815,0.097,13.151,2.688
		C681.195,266.059,686.475,273.834,686.475,283.913z"/>
</g>
<circle fill="#EC3139" cx="350" cy="147.598" r="35.714"/>
<path fill="#EC3139" d="M358.167,115.75c0,2.917-3.656,5.28-8.167,5.28l0,0c-4.51,0-8.166-2.364-8.166-5.28v-86.47
	c0-2.916,3.656-5.279,8.166-5.279l0,0c4.511,0,8.167,2.364,8.167,5.279V115.75z"/>
<g>
</g>
<g>
</g>
<g>
</g>
<g>
</g>
<g>
</g>
<g>
</g>
</svg>
