<?xml version="1.0" encoding="utf-8"?>
<!-- Generator: Adobe Illustrator 16.0.3, SVG Export Plug-In . SVG Version: 6.00 Build 0)  -->
<!DOCTYPE svg PUBLIC "-//W3C//DTD SVG 1.1//EN" "http://www.w3.org/Graphics/SVG/1.1/DTD/svg11.dtd">
<svg version="1.1" id="Layer_1" xmlns="http://www.w3.org/2000/svg" xmlns:xlink="http://www.w3.org/1999/xlink" x="0px" y="0px"
	 width="540px" height="210px" viewBox="0 0 540 210" enable-background="new 0 0 540 210" xml:space="preserve">
<g>
	<path fill="#DD4814" d="M103.308,59.526L91.971,79.34c-6.217-5.862-14.553-8.794-25.006-8.794c-10.031,0-17.96,3.338-23.787,10.013
		c-5.828,6.676-8.742,15.912-8.742,27.708c0,23.806,11.337,35.708,34.012,35.708c9.817,0,18.471-3.249,25.959-9.748l9.748,20.873
		c-7.7,4.805-14.428,7.841-20.185,9.112c-5.758,1.271-12.556,1.907-20.396,1.907c-17.52,0-31.347-5.103-41.482-15.311
		c-10.137-10.207-15.205-24.387-15.205-42.542c0-17.87,5.544-32.317,16.635-43.336c11.089-11.02,26.206-16.529,45.35-16.529
		C82.08,48.401,93.56,52.109,103.308,59.526z"/>
	<path fill="#DD4814" d="M198.352,164v-6.887c-2.19,2.401-5.899,4.503-11.125,6.304c-5.229,1.802-10.632,2.702-16.211,2.702
		c-15.824,0-28.274-5.015-37.35-15.046c-9.078-10.029-13.616-24.016-13.616-41.959c0-17.941,5.208-32.545,15.628-43.813
		c10.419-11.266,23.47-16.9,39.151-16.9c8.617,0,16.458,1.767,23.522,5.298V8.243l26.489-6.357V164H198.352z M198.352,77.645
		c-5.652-4.52-11.549-6.781-17.695-6.781c-10.596,0-18.754,3.232-24.476,9.695c-5.722,6.464-8.583,15.735-8.583,27.814
		c0,23.593,11.372,35.389,34.118,35.389c2.543,0,5.668-0.758,9.377-2.277c3.708-1.519,6.127-3.055,7.258-4.609V77.645z"/>
	<path fill="#DD4814" d="M324.334,164V98.413c0-9.677-1.854-16.741-5.562-21.191c-3.709-4.45-9.767-6.675-18.172-6.675
		c-3.886,0-8.036,1.096-12.45,3.285c-4.415,2.19-7.858,4.911-10.331,8.159V164H251.33V50.52h19.072l4.873,10.596
		c7.205-8.477,17.836-12.715,31.894-12.715c13.491,0,24.14,4.044,31.946,12.132c7.804,8.089,11.708,19.374,11.708,33.853V164
		H324.334z"/>
	<path fill="#DD4814" d="M363.856,208.502v-23.629c14.127,0,23.682-1.679,28.661-5.032c4.98-3.356,7.47-9.378,7.47-18.065V72.347
		h-20.449V50.52h46.939v110.832c0,16.246-5.104,28.166-15.312,35.76C400.958,204.704,385.188,208.502,363.856,208.502z
		 M412.385,6.548c4.238,0,7.857,1.501,10.86,4.503c3.002,3.003,4.504,6.623,4.504,10.861s-1.502,7.859-4.504,10.861
		c-3.003,3.003-6.622,4.503-10.86,4.503s-7.859-1.5-10.86-4.503c-3.004-3.002-4.504-6.623-4.504-10.861s1.5-7.857,4.504-10.861
		C404.525,8.049,408.146,6.548,412.385,6.548z"/>
	<path fill="#DD4814" d="M452.012,156.689l9.431-21.086c7.91,6.288,16.847,9.43,26.808,9.43c10.312,0,15.469-3.672,15.469-11.02
		c0-4.307-1.554-7.84-4.662-10.596c-3.108-2.754-9.148-6.002-18.118-9.748c-19.567-8.121-29.351-19.496-29.351-34.118
		c0-9.817,3.744-17.465,11.232-22.94c7.486-5.473,17.059-8.211,28.714-8.211c11.796,0,22.887,2.649,33.271,7.947l-7.629,20.556
		c-5.793-4.943-13.846-7.417-24.158-7.417c-9.255,0-13.881,3.674-13.881,11.02c0,2.897,1.519,5.51,4.557,7.841
		c3.036,2.331,9.536,5.457,19.496,9.377c9.96,3.921,17.129,8.673,21.51,14.251c4.379,5.582,6.568,12.328,6.568,20.238
		c0,10.526-3.903,18.808-11.708,24.847c-7.806,6.04-18.42,9.06-31.84,9.06c-7.56,0-13.615-0.619-18.172-1.854
		C464.992,163.03,459.146,160.504,452.012,156.689z"/>
</g>
</svg>
